<svg width="25" height="25" viewBox="0 0 25 25" fill="none" xmlns="http://www.w3.org/2000/svg">
<path d="M12.4826 0C7.43046 0 3.32031 4.11015 3.32031 9.16233C3.32031 11.4832 4.78268 14.7623 7.66697 18.9087C9.77516 21.9397 11.8486 24.2851 11.936 24.3835L12.4826 25L13.0295 24.3835C13.1166 24.2851 15.1901 21.9397 17.2985 18.9087C20.1826 14.7623 21.6452 11.4832 21.6452 9.16233C21.6452 4.11015 17.5348 0 12.4826 0ZM16.1066 18.0622C14.6816 20.1122 13.2414 21.8765 12.4826 22.7766C11.7258 21.879 10.2909 20.1214 8.86688 18.074C6.1945 14.2323 4.78191 11.1506 4.78191 9.16233C4.78191 4.91619 8.2365 1.4616 12.4826 1.4616C16.729 1.4616 20.1834 4.91619 20.1834 9.16233C20.1834 11.1485 18.7737 14.226 16.1066 18.0622Z" fill="#C8A35F"/>
<path d="M12.4827 3.38623C9.50096 3.38623 7.0752 5.812 7.0752 8.79375C7.0752 11.7755 9.50096 14.2015 12.4827 14.2015C15.4647 14.2015 17.8904 11.7755 17.8904 8.79375C17.8904 5.812 15.4647 3.38623 12.4827 3.38623ZM12.4827 12.7399C10.307 12.7399 8.5368 10.9697 8.5368 8.79375C8.5368 6.61804 10.307 4.84783 12.4827 4.84783C14.6586 4.84783 16.4288 6.61804 16.4288 8.79375C16.4288 10.9697 14.6586 12.7399 12.4827 12.7399Z" fill="#C8A35F"/>
</svg>
